<svg width="425" height="533" viewBox="0 0 425 533" fill="none" xmlns="http://www.w3.org/2000/svg">
<path d="M287.808 494.442H385.246V524.57C385.246 528.99 381.664 532.57 377.246 532.57H295.808C291.388 532.57 287.808 528.99 287.808 524.57V494.442Z" fill="#BC991B"/>
<path d="M42.092 494.442H139.53V524.57C139.53 528.99 135.949 532.57 131.53 532.57H50.092C45.6738 532.57 42.092 528.99 42.092 524.57V494.442Z" fill="#BC991B"/>
<path d="M321.126 0.896072H106.157C98.4805 0.896072 91.8859 6.34767 90.4423 13.8869L1.24979 479.67C-0.639078 489.534 6.92096 498.68 16.9643 498.68H408.336C418.352 498.68 425.906 489.58 424.062 479.734L336.852 13.9515C335.436 6.38205 328.826 0.896072 321.126 0.896072Z" fill="#E9BB17"/>
<path d="M280.988 43.2608H144.42C136.683 43.2608 130.055 48.796 128.676 56.4086L81.5172 316.724C79.7386 326.542 87.2826 335.576 97.261 335.576H331.92C341.99 335.576 349.556 326.386 347.622 316.504L296.69 56.1886C295.222 48.6788 288.64 43.2608 280.988 43.2608Z" fill="#6F219E"/>
<path d="M181.659 93.9801H200.724V134.226M200.724 134.226H181.659M200.724 134.226V176.591M200.724 176.591H181.659M200.724 176.591V218.956M200.724 218.956H181.659M200.724 218.956V261.32M200.724 261.32H181.659M200.724 261.32V303.684H181.659" stroke="#FF912C" stroke-width="10"/>
<path d="M250.722 93.9801H231.658V134.226M231.658 134.226H250.722M231.658 134.226V176.591M231.658 176.591H250.722M231.658 176.591V218.956M231.658 218.956H250.722M231.658 218.956V261.32M231.658 261.32H250.722M231.658 261.32V303.684H250.722" stroke="#FF912C" stroke-width="10"/>
<path d="M194.487 335.576V43.2608H238.97V335.576H194.487Z" fill="#E7F2E7"/>
<path d="M188.25 449.96C197.429 459.846 220.872 473.684 241.206 449.96" stroke="black" stroke-width="2" stroke-linecap="round"/>
<path d="M191.61 424.896C204.864 424.896 215.61 414.151 215.61 400.896C215.61 387.641 204.864 376.896 191.61 376.896C178.355 376.896 167.61 387.641 167.61 400.896C167.61 414.151 178.355 424.896 191.61 424.896Z" fill="white"/>
<path d="M239.61 424.896C252.864 424.896 263.61 414.151 263.61 400.896C263.61 387.641 252.864 376.896 239.61 376.896C226.355 376.896 215.61 387.641 215.61 400.896C215.61 414.151 226.355 424.896 239.61 424.896Z" fill="white"/>
<path d="M202.018 401.896C202.898 401.896 203.622 402.612 203.496 403.482C203.364 404.382 203.122 405.262 202.772 406.106C202.22 407.44 201.41 408.652 200.388 409.674C199.366 410.696 198.154 411.506 196.819 412.058C195.485 412.612 194.054 412.896 192.61 412.896C191.165 412.896 189.735 412.612 188.4 412.058C187.066 411.506 185.853 410.696 184.831 409.674C183.81 408.652 183 407.44 182.447 406.106C182.098 405.262 181.856 404.382 181.725 403.482C181.598 402.612 182.322 401.896 183.201 401.896C184.08 401.896 184.777 402.616 184.955 403.476C185.054 403.958 185.199 404.43 185.388 404.888C185.781 405.836 186.357 406.698 187.083 407.424C187.808 408.148 188.67 408.724 189.618 409.118C190.567 409.51 191.583 409.712 192.61 409.712C193.636 409.712 194.652 409.51 195.601 409.118C196.549 408.724 197.411 408.148 198.138 407.424C198.862 406.698 199.438 405.836 199.832 404.888C200.02 404.43 200.166 403.958 200.264 403.476C200.442 402.616 201.14 401.896 202.018 401.896Z" fill="#292626"/>
<path d="M250.018 401.896C250.898 401.896 251.622 402.612 251.496 403.482C251.364 404.382 251.122 405.262 250.772 406.106C250.22 407.44 249.41 408.652 248.388 409.674C247.366 410.696 246.154 411.506 244.82 412.058C243.484 412.612 242.054 412.896 240.61 412.896C239.166 412.896 237.736 412.612 236.4 412.058C235.066 411.506 233.854 410.696 232.832 409.674C231.81 408.652 231 407.44 230.448 406.106C230.098 405.262 229.856 404.382 229.724 403.482C229.598 402.612 230.322 401.896 231.202 401.896C232.08 401.896 232.778 402.616 232.956 403.476C233.054 403.958 233.2 404.43 233.388 404.888C233.782 405.836 234.358 406.698 235.082 407.424C235.808 408.148 236.67 408.724 237.618 409.118C238.568 409.51 239.584 409.712 240.61 409.712C241.636 409.712 242.652 409.51 243.602 409.118C244.55 408.724 245.412 408.148 246.138 407.424C246.862 406.698 247.438 405.836 247.832 404.888C248.02 404.43 248.166 403.958 248.264 403.476C248.442 402.616 249.14 401.896 250.018 401.896Z" fill="#292626"/>
</svg>
