<svg width="1428" height="504" viewBox="0 0 1428 504" fill="none" xmlns="http://www.w3.org/2000/svg">
<path d="M0 24H68V496C68 500.418 64.4183 504 60 504H8C3.58172 504 0 500.418 0 496V24Z" fill="#DDDADA"/>
<path d="M0.5 0.5H67.5V472C67.5 476.142 64.1421 479.5 60 479.5H8C3.85786 479.5 0.5 476.142 0.5 472V0.5Z" fill="white" stroke="#DDDADA"/>
<path d="M68 24H136V496C136 500.418 132.418 504 128 504H76C71.5817 504 68 500.418 68 496V24Z" fill="#DDDADA"/>
<path d="M68.5 0.5H135.5V472C135.5 476.142 132.142 479.5 128 479.5H76C71.8579 479.5 68.5 476.142 68.5 472V0.5Z" fill="white" stroke="#DDDADA"/>
<path d="M136 24H204V496C204 500.418 200.418 504 196 504H144C139.582 504 136 500.418 136 496V24Z" fill="#DDDADA"/>
<path d="M136.5 0.5H203.5V472C203.5 476.142 200.142 479.5 196 479.5H144C139.858 479.5 136.5 476.142 136.5 472V0.5Z" fill="white" stroke="#DDDADA"/>
<path d="M204 24H272V496C272 500.418 268.418 504 264 504H212C207.582 504 204 500.418 204 496V24Z" fill="#DDDADA"/>
<path d="M204.5 0.5H271.5V472C271.5 476.142 268.142 479.5 264 479.5H212C207.858 479.5 204.5 476.142 204.5 472V0.5Z" fill="white" stroke="#DDDADA"/>
<path d="M272 24H340V496C340 500.418 336.418 504 332 504H280C275.582 504 272 500.418 272 496V24Z" fill="#DDDADA"/>
<path d="M272.5 0.5H339.5V472C339.5 476.142 336.142 479.5 332 479.5H280C275.858 479.5 272.5 476.142 272.5 472V0.5Z" fill="white" stroke="#DDDADA"/>
<path d="M340 24H408V496C408 500.418 404.418 504 400 504H348C343.582 504 340 500.418 340 496V24Z" fill="#DDDADA"/>
<path d="M340.5 0.5H407.5V472C407.5 476.142 404.142 479.5 400 479.5H348C343.858 479.5 340.5 476.142 340.5 472V0.5Z" fill="white" stroke="#DDDADA"/>
<path d="M408 24H476V496C476 500.418 472.418 504 468 504H416C411.582 504 408 500.418 408 496V24Z" fill="#DDDADA"/>
<path d="M408.5 0.5H475.5V472C475.5 476.142 472.142 479.5 468 479.5H416C411.858 479.5 408.5 476.142 408.5 472V0.5Z" fill="white" stroke="#DDDADA"/>
<rect x="44" y="24" width="48" height="292" rx="8" fill="#1C1A1A"/>
<path d="M44.5 0.5H91.5V284C91.5 288.142 88.1421 291.5 84 291.5H52C47.8579 291.5 44.5 288.142 44.5 284V0.5Z" fill="#3F3B3C" stroke="#1C1A1A"/>
<rect x="112" y="24" width="48" height="292" rx="8" fill="#1C1A1A"/>
<path d="M112.5 0.5H159.5V284C159.5 288.142 156.142 291.5 152 291.5H120C115.858 291.5 112.5 288.142 112.5 284V0.5Z" fill="#3F3B3C" stroke="#1C1A1A"/>
<rect x="248" y="24" width="48" height="292" rx="8" fill="#1C1A1A"/>
<path d="M248.5 0.5H295.5V284C295.5 288.142 292.142 291.5 288 291.5H256C251.858 291.5 248.5 288.142 248.5 284V0.5Z" fill="#3F3B3C" stroke="#1C1A1A"/>
<rect x="316" y="24" width="48" height="292" rx="8" fill="#1C1A1A"/>
<path d="M316.5 0.5H363.5V284C363.5 288.142 360.142 291.5 356 291.5H324C319.858 291.5 316.5 288.142 316.5 284V0.5Z" fill="#3F3B3C" stroke="#1C1A1A"/>
<rect x="384" y="24" width="48" height="292" rx="8" fill="#1C1A1A"/>
<path d="M384.5 0.5H431.5V284C431.5 288.142 428.142 291.5 424 291.5H392C387.858 291.5 384.5 288.142 384.5 284V0.5Z" fill="#3F3B3C" stroke="#1C1A1A"/>
<path d="M476 24H544V496C544 500.418 540.418 504 536 504H484C479.582 504 476 500.418 476 496V24Z" fill="#DDDADA"/>
<path d="M476.5 0.5H543.5V472C543.5 476.142 540.142 479.5 536 479.5H484C479.858 479.5 476.5 476.142 476.5 472V0.5Z" fill="white" stroke="#DDDADA"/>
<path d="M544 24H612V496C612 500.418 608.418 504 604 504H552C547.582 504 544 500.418 544 496V24Z" fill="#DDDADA"/>
<path d="M544.5 0.5H611.5V472C611.5 476.142 608.142 479.5 604 479.5H552C547.858 479.5 544.5 476.142 544.5 472V0.5Z" fill="white" stroke="#DDDADA"/>
<path d="M612 24H680V496C680 500.418 676.418 504 672 504H620C615.582 504 612 500.418 612 496V24Z" fill="#DDDADA"/>
<path d="M612.5 0.5H679.5V472C679.5 476.142 676.142 479.5 672 479.5H620C615.858 479.5 612.5 476.142 612.5 472V0.5Z" fill="white" stroke="#DDDADA"/>
<path d="M680 24H748V496C748 500.418 744.418 504 740 504H688C683.582 504 680 500.418 680 496V24Z" fill="#DDDADA"/>
<path d="M680.5 0.5H747.5V472C747.5 476.142 744.142 479.5 740 479.5H688C683.858 479.5 680.5 476.142 680.5 472V0.5Z" fill="white" stroke="#DDDADA"/>
<path d="M748 24H816V496C816 500.418 812.418 504 808 504H756C751.582 504 748 500.418 748 496V24Z" fill="#DDDADA"/>
<path d="M748.5 0.5H815.5V472C815.5 476.142 812.142 479.5 808 479.5H756C751.858 479.5 748.5 476.142 748.5 472V0.5Z" fill="white" stroke="#DDDADA"/>
<path d="M816 24H884V496C884 500.418 880.418 504 876 504H824C819.582 504 816 500.418 816 496V24Z" fill="#DDDADA"/>
<path d="M816.5 0.5H883.5V472C883.5 476.142 880.142 479.5 876 479.5H824C819.858 479.5 816.5 476.142 816.5 472V0.5Z" fill="white" stroke="#DDDADA"/>
<path d="M884 24H952V496C952 500.418 948.418 504 944 504H892C887.582 504 884 500.418 884 496V24Z" fill="#DDDADA"/>
<path d="M884.5 0.5H951.5V472C951.5 476.142 948.142 479.5 944 479.5H892C887.858 479.5 884.5 476.142 884.5 472V0.5Z" fill="white" stroke="#DDDADA"/>
<rect x="520" y="24" width="48" height="292" rx="8" fill="#1C1A1A"/>
<path d="M520.5 0.5H567.5V284C567.5 288.142 564.142 291.5 560 291.5H528C523.858 291.5 520.5 288.142 520.5 284V0.5Z" fill="#3F3B3C" stroke="#1C1A1A"/>
<rect x="588" y="24" width="48" height="292" rx="8" fill="#1C1A1A"/>
<path d="M588.5 0.5H635.5V284C635.5 288.142 632.142 291.5 628 291.5H596C591.858 291.5 588.5 288.142 588.5 284V0.5Z" fill="#3F3B3C" stroke="#1C1A1A"/>
<rect x="724" y="24" width="48" height="292" rx="8" fill="#1C1A1A"/>
<path d="M724.5 0.5H771.5V284C771.5 288.142 768.142 291.5 764 291.5H732C727.858 291.5 724.5 288.142 724.5 284V0.5Z" fill="#3F3B3C" stroke="#1C1A1A"/>
<rect x="792" y="24" width="48" height="292" rx="8" fill="#1C1A1A"/>
<path d="M792.5 0.5H839.5V284C839.5 288.142 836.142 291.5 832 291.5H800C795.858 291.5 792.5 288.142 792.5 284V0.5Z" fill="#3F3B3C" stroke="#1C1A1A"/>
<rect x="860" y="24" width="48" height="292" rx="8" fill="#1C1A1A"/>
<path d="M860.5 0.5H907.5V284C907.5 288.142 904.142 291.5 900 291.5H868C863.858 291.5 860.5 288.142 860.5 284V0.5Z" fill="#3F3B3C" stroke="#1C1A1A"/>
<path d="M952 24H1020V496C1020 500.418 1016.42 504 1012 504H960C955.582 504 952 500.418 952 496V24Z" fill="#DDDADA"/>
<path d="M952.5 0.5H1019.5V472C1019.5 476.142 1016.14 479.5 1012 479.5H960C955.858 479.5 952.5 476.142 952.5 472V0.5Z" fill="white" stroke="#DDDADA"/>
<path d="M1020 24H1088V496C1088 500.418 1084.42 504 1080 504H1028C1023.58 504 1020 500.418 1020 496V24Z" fill="#DDDADA"/>
<path d="M1020.5 0.5H1087.5V472C1087.5 476.142 1084.14 479.5 1080 479.5H1028C1023.86 479.5 1020.5 476.142 1020.5 472V0.5Z" fill="white" stroke="#DDDADA"/>
<path d="M1088 24H1156V496C1156 500.418 1152.42 504 1148 504H1096C1091.58 504 1088 500.418 1088 496V24Z" fill="#DDDADA"/>
<path d="M1088.5 0.5H1155.5V472C1155.5 476.142 1152.14 479.5 1148 479.5H1096C1091.86 479.5 1088.5 476.142 1088.5 472V0.5Z" fill="white" stroke="#DDDADA"/>
<path d="M1156 24H1224V496C1224 500.418 1220.42 504 1216 504H1164C1159.58 504 1156 500.418 1156 496V24Z" fill="#DDDADA"/>
<path d="M1156.5 0.5H1223.5V472C1223.5 476.142 1220.14 479.5 1216 479.5H1164C1159.86 479.5 1156.5 476.142 1156.5 472V0.5Z" fill="white" stroke="#DDDADA"/>
<path d="M1224 24H1292V496C1292 500.418 1288.42 504 1284 504H1232C1227.58 504 1224 500.418 1224 496V24Z" fill="#DDDADA"/>
<path d="M1224.5 0.5H1291.5V472C1291.5 476.142 1288.14 479.5 1284 479.5H1232C1227.86 479.5 1224.5 476.142 1224.5 472V0.5Z" fill="white" stroke="#DDDADA"/>
<path d="M1292 24H1360V496C1360 500.418 1356.42 504 1352 504H1300C1295.58 504 1292 500.418 1292 496V24Z" fill="#DDDADA"/>
<path d="M1292.5 0.5H1359.5V472C1359.5 476.142 1356.14 479.5 1352 479.5H1300C1295.86 479.5 1292.5 476.142 1292.5 472V0.5Z" fill="white" stroke="#DDDADA"/>
<path d="M1360 24H1428V496C1428 500.418 1424.42 504 1420 504H1368C1363.58 504 1360 500.418 1360 496V24Z" fill="#DDDADA"/>
<path d="M1360.5 0.5H1427.5V472C1427.5 476.142 1424.14 479.5 1420 479.5H1368C1363.86 479.5 1360.5 476.142 1360.5 472V0.5Z" fill="white" stroke="#DDDADA"/>
<rect x="996" y="24" width="48" height="292" rx="8" fill="#1C1A1A"/>
<path d="M996.5 0.5H1043.5V284C1043.5 288.142 1040.14 291.5 1036 291.5H1004C999.858 291.5 996.5 288.142 996.5 284V0.5Z" fill="#3F3B3C" stroke="#1C1A1A"/>
<rect x="1064" y="24" width="48" height="292" rx="8" fill="#1C1A1A"/>
<path d="M1064.5 0.5H1111.5V284C1111.5 288.142 1108.14 291.5 1104 291.5H1072C1067.86 291.5 1064.5 288.142 1064.5 284V0.5Z" fill="#3F3B3C" stroke="#1C1A1A"/>
<rect x="1200" y="24" width="48" height="292" rx="8" fill="#1C1A1A"/>
<path d="M1200.5 0.5H1247.5V284C1247.5 288.142 1244.14 291.5 1240 291.5H1208C1203.86 291.5 1200.5 288.142 1200.5 284V0.5Z" fill="#3F3B3C" stroke="#1C1A1A"/>
<rect x="1268" y="24" width="48" height="292" rx="8" fill="#1C1A1A"/>
<path d="M1268.5 0.5H1315.5V284C1315.5 288.142 1312.14 291.5 1308 291.5H1276C1271.86 291.5 1268.5 288.142 1268.5 284V0.5Z" fill="#3F3B3C" stroke="#1C1A1A"/>
<rect x="1336" y="24" width="48" height="292" rx="8" fill="#1C1A1A"/>
<path d="M1336.5 0.5H1383.5V284C1383.5 288.142 1380.14 291.5 1376 291.5H1344C1339.86 291.5 1336.5 288.142 1336.5 284V0.5Z" fill="#3F3B3C" stroke="#1C1A1A"/>
</svg>
